<svg width="18" height="13" viewBox="0 0 18 13" fill="none" xmlns="http://www.w3.org/2000/svg">
<path d="M9.95739 3.6602C9.95739 3.13321 10.3846 2.706 10.9116 2.706H11.8658C12.3928 2.706 12.82 3.13321 12.82 3.6602V11.2938C12.82 11.8208 12.3928 12.248 11.8658 12.248H10.9116C10.3846 12.248 9.95739 11.8208 9.95739 11.2938V3.6602Z" fill="white"/>
<path d="M14.7284 1.75181C14.7284 1.22482 15.1556 0.797607 15.6826 0.797607H16.6368C17.1638 0.797607 17.591 1.22482 17.591 1.75181V11.2938C17.591 11.8208 17.1638 12.248 16.6368 12.248H15.6826C15.1556 12.248 14.7284 11.8208 14.7284 11.2938V1.75181Z" fill="white"/>
<path d="M5.1864 6.9999C5.1864 6.47291 5.61361 6.0457 6.1406 6.0457H7.09479C7.62178 6.0457 8.04899 6.47291 8.04899 6.9999V11.2938C8.04899 11.8208 7.62178 12.248 7.09479 12.248H6.1406C5.61361 12.248 5.1864 11.8208 5.1864 11.2938V6.9999Z" fill="white"/>
<path d="M0.415405 9.38539C0.415405 8.8584 0.842614 8.43119 1.3696 8.43119H2.3238C2.85079 8.43119 3.278 8.8584 3.278 9.38539V11.2938C3.278 11.8208 2.85079 12.248 2.3238 12.248H1.3696C0.842614 12.248 0.415405 11.8208 0.415405 11.2938V9.38539Z" fill="white"/>
</svg>
