<svg width="27" height="14" viewBox="0 0 27 14" fill="none" xmlns="http://www.w3.org/2000/svg">
<path opacity="0.35" d="M3.89624 1.30054H20.1179C21.9477 1.30054 23.4312 2.78424 23.4314 4.61401V9.3855C23.4313 11.2154 21.9478 12.699 20.1179 12.699H3.89624C2.0665 12.6988 0.58282 11.2153 0.582764 9.3855V4.61401C0.582974 2.78437 2.0666 1.30075 3.89624 1.30054Z" stroke="white" stroke-width="1.00676"/>
<path opacity="0.4" d="M24.889 5.5686V9.59565C25.6992 9.25458 26.2261 8.46116 26.2261 7.58213C26.2261 6.70309 25.6992 5.90967 24.889 5.5686" fill="white"/>
<path d="M1.98828 4.61445C1.98828 3.56047 2.8427 2.70605 3.89668 2.70605H20.118C21.172 2.70605 22.0264 3.56047 22.0264 4.61445V9.38544C22.0264 10.4394 21.172 11.2938 20.1181 11.2938H3.89668C2.8427 11.2938 1.98828 10.4394 1.98828 9.38544V4.61445Z" fill="white"/>
</svg>
