<svg width="17" height="13" viewBox="0 0 17 13" fill="none" xmlns="http://www.w3.org/2000/svg">
<path d="M6.05958 9.30787C7.41441 8.13817 9.39908 8.13817 10.7539 9.30787C10.8221 9.37079 10.8614 9.46017 10.8633 9.55396C10.8651 9.64761 10.8292 9.73834 10.7637 9.80396L8.64259 11.9885C8.5805 12.0527 8.49555 12.089 8.40723 12.0891C8.31877 12.0891 8.23309 12.0528 8.17091 11.9885L6.04981 9.80396C5.98438 9.73831 5.94839 9.64758 5.9502 9.55396C5.95215 9.4602 5.99141 9.37073 6.05958 9.30787ZM3.19141 6.69263C6.11035 3.9211 10.6308 3.92116 13.5498 6.69263C13.6157 6.75762 13.6534 6.84715 13.6543 6.94068C13.6552 7.0341 13.6192 7.1244 13.5547 7.19068L12.3281 8.45533C12.2017 8.58418 11.9977 8.58683 11.8682 8.46119C10.9096 7.57525 9.66225 7.08513 8.36915 7.08521C7.07702 7.08587 5.83086 7.57588 4.87305 8.46119C4.74343 8.58677 4.53944 8.58436 4.41309 8.45533L3.18751 7.19068C3.12284 7.12448 3.08612 7.03415 3.08692 6.94068C3.08779 6.84719 3.12557 6.75761 3.19141 6.69263ZM0.327156 4.08228C4.80417 -0.297284 11.8667 -0.297284 16.3438 4.08228C16.4085 4.14733 16.4458 4.23567 16.4463 4.32837C16.4468 4.42116 16.4107 4.51059 16.3467 4.57642L15.1191 5.84107C14.9926 5.97087 14.7867 5.97277 14.6582 5.84498C12.9525 4.18975 10.6894 3.26603 8.33594 3.26587C5.98213 3.26587 3.71768 4.18955 2.01173 5.84498C1.88333 5.97261 1.67807 5.97094 1.55176 5.84107L0.323249 4.57642C0.259311 4.51056 0.224035 4.42109 0.224616 4.32837C0.225214 4.23564 0.262365 4.14729 0.327156 4.08228Z" fill="white"/>
</svg>
